<svg xmlns="http://www.w3.org/2000/svg" width="34.9143" height="20" viewBox="0 0 34.9143 20"><defs><style>.a{fill:#767676;}</style></defs><title>img-logo-tld-bar-gray_site</title><path class="a" d="M30.1714,0H8.4571A4.6581,4.6581,0,0,0,3.7714,4.6286a4.9584,4.9584,0,0,0,.2857,1.6A5.0808,5.0808,0,0,0,5.1429,16.2857H9.3143A2.8837,2.8837,0,0,0,11.2571,15.6,4.5893,4.5893,0,0,0,15.8286,20c4.0571,0,6.7428-2.7429,7.0285-4.2857a2.4779,2.4779,0,0,0,1.6.5714h5.7715a4.6581,4.6581,0,0,0,4.6857-4.6286V4.6286A4.7077,4.7077,0,0,0,30.1714,0ZM5.1429,12.7429a1.3715,1.3715,0,1,1,1.3714-1.3715A1.3538,1.3538,0,0,1,5.1429,12.7429Zm9.4857-.2286a1.1026,1.1026,0,0,1-.5715.1714.9214.9214,0,0,1-.7428-.3428L11.2571,9.7143,9.1429,12.4a.9216.9216,0,0,1-.7429.3429.9651.9651,0,0,1-.5714-.1715.9807.9807,0,0,1-.1715-1.3143l2.4-3.0285L7.8857,5.4857A.9372.9372,0,1,1,9.3714,4.3429l1.8857,2.4,1.8858-2.4a.9805.9805,0,0,1,1.3142-.1715.9807.9807,0,0,1,.1715,1.3143L12.4571,8.2286l2.4,3.0285A.9132.9132,0,0,1,14.6286,12.5143Zm8.7428-7.2572c0,.0572-1.5428,3.7143-3.0857,7.0286h0c-.2857.6286-.5714,1.2572-.8571,1.8286a3.5027,3.5027,0,0,1-3.4857,2.1714.9143.9143,0,0,1,0-1.8286,1.7115,1.7115,0,0,0,1.8285-1.0857l.6857-1.4285C17.0286,8.8,15.6,5.3714,15.5429,5.3714a.9231.9231,0,1,1,1.7142-.6857c0,.0572,1.0286,2.4,2.1715,5.0286C20.6286,7.0857,21.6,4.6857,21.6,4.6857A.9889.9889,0,0,1,22.8571,4,.922.922,0,0,1,23.3714,5.2571Zm6.5143,7.3143H25.0286a.9428.9428,0,0,1-.8572-.5143.9861.9861,0,0,1,.0572-.9714l3.8285-5.2571H25.0286a.9143.9143,0,0,1,0-1.8286h4.8571a.9428.9428,0,0,1,.8572.5143.8868.8868,0,0,1-.0572.9143l-3.8286,5.2571h3.0286A.9026.9026,0,0,1,30.8,11.6.9522.9522,0,0,1,29.8857,12.5714Z"/></svg>