<svg width="40" height="41" viewBox="0 0 40 41" fill="none" xmlns="http://www.w3.org/2000/svg">
<g clip-path="url(#clip0_1532_754)">
<path d="M31.7948 12.6837C31.7947 12.2757 31.6326 11.8844 31.3441 11.5959C31.0556 11.3074 30.6644 11.1453 30.2564 11.1452H17.9487C17.5407 11.1452 17.1494 11.3073 16.8609 11.5958C16.5723 11.8843 16.4103 12.2757 16.4103 12.6837C16.4103 13.0917 16.5723 13.483 16.8609 13.7715C17.1494 14.06 17.5407 14.2221 17.9487 14.2221H30.2564C30.6644 14.222 31.0556 14.0599 31.3441 13.7714C31.6326 13.4829 31.7947 13.0917 31.7948 12.6837Z" fill="#00A4A6"/>
<path d="M8.65586 11.5959C8.36736 11.8844 8.20523 12.2757 8.20514 12.6837C8.20302 13.0883 8.361 13.4942 8.65586 13.7713C8.9415 14.0571 9.33955 14.2221 9.7436 14.2221C10.1477 14.2221 10.5457 14.0571 10.8313 13.7713C11.1116 13.4811 11.2828 13.0871 11.2821 12.6837C11.282 12.2757 11.1198 11.8844 10.8313 11.5959C10.5369 11.319 10.1479 11.1647 9.7436 11.1647C9.33935 11.1647 8.95032 11.319 8.65586 11.5959Z" fill="#00A4A6"/>
<path d="M35.4651 20.8888C37.2492 19.763 38.6188 18.0875 39.3673 16.1151C40.1158 14.1428 40.2026 11.9805 39.6147 9.95445C39.0267 7.92842 37.7959 6.14853 36.1078 4.88327C34.4197 3.618 32.366 2.93599 30.2564 2.9401H9.74359C7.63398 2.93599 5.58024 3.61801 3.89217 4.88328C2.2041 6.14854 0.973262 7.92843 0.385311 9.95446C-0.20264 11.9805 -0.115811 14.1428 0.632703 16.1151C1.38122 18.0875 2.75082 19.763 4.53491 20.8888C2.75082 22.0146 1.38122 23.6901 0.632703 25.6625C-0.115811 27.6348 -0.20264 29.7971 0.385311 31.8231C0.973262 33.8492 2.2041 35.629 3.89217 36.8943C5.58024 38.1596 7.63398 38.8416 9.74359 38.8375H30.2564C32.366 38.8416 34.4197 38.1596 36.1078 36.8943C37.7959 35.6291 39.0267 33.8492 39.6147 31.8231C40.2026 29.7971 40.1158 27.6348 39.3673 25.6625C38.6188 23.6901 37.2492 22.0146 35.4651 20.8888ZM3.07694 12.6837C3.07899 10.9162 3.78202 9.2217 5.03182 7.9719C6.28161 6.7221 7.97612 6.01907 9.74359 6.01702H30.2564C32.0245 6.01702 33.7202 6.7194 34.9704 7.96964C36.2207 9.21988 36.923 10.9156 36.923 12.6837C36.923 14.4518 36.2207 16.1475 34.9704 17.3977C33.7202 18.648 32.0245 19.3503 30.2564 19.3503H9.74359C7.97612 19.3483 6.28161 18.6453 5.03182 17.3955C3.78202 16.1457 3.07899 14.4512 3.07694 12.6837ZM30.2564 35.7606H9.74359C7.97549 35.7606 6.2798 35.0582 5.02956 33.8079C3.77932 32.5577 3.07694 30.862 3.07694 29.0939C3.07694 27.3258 3.77932 25.6301 5.02956 24.3799C6.2798 23.1296 7.97549 22.4273 9.74359 22.4273H30.2564C32.0245 22.4273 33.7202 23.1296 34.9704 24.3799C36.2207 25.6301 36.923 27.3258 36.923 29.0939C36.923 30.862 36.2207 32.5577 34.9704 33.8079C33.7202 35.0582 32.0245 35.7606 30.2564 35.7606Z" fill="#00A4A6"/>
<path d="M30.2564 27.5554H17.9487C17.5407 27.5554 17.1494 27.7175 16.8609 28.0061C16.5723 28.2946 16.4103 28.6859 16.4103 29.0939C16.4103 29.5019 16.5723 29.8932 16.8609 30.1818C17.1494 30.4703 17.5407 30.6324 17.9487 30.6324H30.2564C30.6644 30.6324 31.0557 30.4703 31.3442 30.1818C31.6328 29.8932 31.7948 29.5019 31.7948 29.0939C31.7948 28.6859 31.6328 28.2946 31.3442 28.0061C31.0557 27.7175 30.6644 27.5554 30.2564 27.5554Z" fill="#00A4A6"/>
<path d="M10.0397 27.5873C9.54467 27.4907 9.01263 27.6495 8.65595 28.0062C8.37039 28.2917 8.20661 28.6901 8.20514 29.0939C8.20302 29.4986 8.361 29.9044 8.65586 30.1816C8.94434 30.4701 9.33559 30.6322 9.74359 30.6324C10.1471 30.6331 10.541 30.4619 10.8313 30.1816C11.0485 29.9665 11.1959 29.6909 11.2542 29.3907C11.3124 29.0906 11.2789 28.7798 11.1579 28.499C10.9606 28.0355 10.5342 27.6839 10.0397 27.5873Z" fill="#00A4A6"/>
</g>
<defs>
<clipPath id="clip0_1532_754">
<rect width="40" height="40" fill="white" transform="translate(0 0.888794)"/>
</clipPath>
</defs>
</svg>
